<svg t="1768832832396" class="icon" viewBox="0 0 1024 1024" version="1.1" xmlns="http://www.w3.org/2000/svg" p-id="6070" width="200" height="200"><path d="M672.256 314.88H351.744c-20.48 0-36.864 16.384-36.864 36.864v320.512c0 20.48 16.896 36.864 36.864 36.864h320c20.48 0 36.864-16.384 36.864-36.864V351.744c0.512-20.48-15.872-36.864-36.352-36.864zM634.88 389.12v245.76H389.12V389.12h245.76z" fill="#7ADDFF" p-id="6071"></path><path d="M901.632 667.136v-53.76H1024v-74.24h-122.368V484.864H1024V410.624h-122.368V356.864H1024V283.136h-122.88c-1.024-8.192-4.608-15.36-10.24-20.992L762.368 133.12c-5.632-5.632-13.312-9.216-20.992-10.24V0h-74.24v122.368h-53.76V0h-73.728v122.368H484.864V0H410.624v122.368H356.864V0H283.136v122.88c-8.192 1.024-15.36 4.608-20.992 10.24L133.12 261.632c-5.632 5.632-9.216 13.312-10.24 20.992H0v74.24h122.368v53.76H0v74.24h122.368v54.784H0v74.24h122.368v53.76H0v74.24h122.88c1.024 8.192 4.608 15.36 10.24 20.992l129.024 128c5.632 5.632 13.312 9.216 20.992 10.24v122.88h74.24v-122.368h53.76V1024h74.24v-122.368h54.784V1024H614.4v-122.368h53.76V1024h73.728v-122.88c8.192-1.024 15.36-4.608 20.992-10.24l128.512-128.512c5.632-5.632 9.216-13.312 10.24-20.992h122.88v-74.24h-122.88z m-74.24 53.248l-107.008 107.008H303.616l-107.008-107.008V303.616l107.008-107.008h417.28l107.008 107.008v416.768z" fill="#6CD975" p-id="6072"></path><path d="M283.136 122.88c-8.192 1.024-15.36 4.608-20.992 10.24L133.12 261.632c-5.632 5.632-9.216 13.312-10.24 20.992l-0.512 74.24v310.784l0.512 74.24c1.024 8.192 4.608 15.36 10.24 20.992l129.024 128c5.632 5.632 13.312 9.216 20.992 10.24l74.24 0.512h310.784l73.728-0.512c8.192-1.024 15.36-4.608 20.992-10.24l128.512-128.512c5.632-5.632 9.216-13.312 10.24-20.992l0.512-74.24V356.864l-1.024-73.728c-1.024-8.192-4.608-15.36-10.24-20.992L762.368 133.12c-5.632-5.632-13.312-9.216-20.992-10.24l-74.24-0.512H356.864l-73.728 0.512z m544.256 597.504l-107.008 107.008H303.616l-107.008-107.008V303.616l107.008-107.008h417.28l107.008 107.008v416.768z" fill="#3B64E9" p-id="6073"></path></svg>