<svg data-v-0dd9719b="" version="1.0" xmlns="http://www.w3.org/2000/svg" xmlns:xlink="http://www.w3.org/1999/xlink" width="100%" height="100%" viewBox="0 0 340.000000 250.000000" preserveAspectRatio="xMidYMid meet" color-interpolation-filters="sRGB" style="margin: auto;">   <g data-v-0dd9719b="" class="iconmbgsvg" transform="translate(65.71749877929688,74.07687377929688)"><g fill="#567275" hollow-target="text"><g transform="translate(118.56499481201172,0)" mask="url(#7347a25a-3d02-4f31-ac35-ffb4aa599f2a)"><g><rect fill="#567275" fill-opacity="0" stroke-width="2" x="0" y="0" width="90" height="90" class="image-rect"></rect> <svg x="0" y="0" width="90" height="90" filtersec="colorsb3798126789" class="image-svg-svg primary" style="overflow: visible;"><svg fill="#567275" xmlns="http://www.w3.org/2000/svg" xmlns:xlink="http://www.w3.org/1999/xlink" xml:space="preserve" style="shape-rendering:geometricPrecision;text-rendering:geometricPrecision;image-rendering:optimizeQuality;" viewBox="2.8003997802734375 2.1744041442871094 94.01179504394531 94.01179504394531" x="0px" y="0px" fill-rule="evenodd" clip-rule="evenodd"><defs></defs><g><circle class="fil0" cx="49.8063" cy="49.1803" r="47.0059"></circle></g></svg></svg> <!----></g></g> <g transform="translate(0,48.15374946594238)"><g data-gra="path-name" fill-rule="" class="tp-name" transform="translate(0,0)"><g transform="scale(1)"><g><path d="M16.77-25.13L21.07-23.86 13.61-21.07 16.36-17.55 18.66-18.61 18.86-15.95 35.18-16.81 35.01-19.72 38.21-18.78 40.34-22.88 32.19-24.8 38.01-27.51 37.39-32.76 22.67-32.27 23.45-33.95 18.04-34.48 16.77-28.33 32.55-28.86 26.69-26.08 18.86-27.88ZM21.32-19.84L26.53-22.26 33.91-20.05ZM30.71-3.65L38.09-4.06 37.93-7.58 30.67-7.38 30.67-9.02 38.17-9.35 37.84-13.57 30.67-13.12 30.67-15.46 24.97-15.17 25.09-12.83 21.85-12.59 22.47-14.64 17.59-15.01 16.65-8.53 25.34-8.86 25.42-7.26 17.38-7.09 17.71-2.95 25.63-3.36 25.71-1.52 16.2-1.35 16.48 2.91 39.03 2.05 38.83-1.72 30.71-1.6ZM2.3-32.88L3.2 3.2 7.95 2.83 6.68-27.76 10.25-28 8.61-17.14 10.41-0.37 15.58-1.19 12.71-16.77 15.5-33.09ZM57.77-25.13L62.07-23.86 54.61-21.07 57.36-17.55 59.66-18.61 59.86-15.95 76.18-16.81 76.01-19.72 79.21-18.78 81.34-22.88 73.19-24.8 79.01-27.51 78.39-32.76 63.67-32.27 64.45-33.95 59.04-34.48 57.77-28.33 73.55-28.86 67.69-26.08 59.86-27.88ZM62.32-19.84L67.53-22.26 74.91-20.05ZM71.71-3.65L79.09-4.06 78.93-7.58 71.67-7.38 71.67-9.02 79.17-9.35 78.84-13.57 71.67-13.12 71.67-15.46 65.97-15.17 66.09-12.83 62.85-12.59 63.47-14.64 58.59-15.01 57.65-8.53 66.34-8.86 66.42-7.26 58.38-7.09 58.71-2.95 66.63-3.36 66.71-1.52 57.2-1.35 57.48 2.91 80.03 2.05 79.83-1.72 71.71-1.6ZM43.3-32.88L44.2 3.2 48.95 2.83 47.68-27.76 51.25-28 49.61-17.14 51.41-0.37 56.58-1.19 53.71-16.77 56.5-33.09ZM118-33.66L86.63-32.88 86.96-17.96 117.92-18.45ZM112.26-22.55L92.41-21.94 92.37-23.78 111.07-24.39 110.95-27.72 92.29-27.02 92.25-29.23 112.22-29.64ZM105.25-5.13L119.56-5.33 119.23-10.33 105.29-9.63 105.29-11.73 121.61-12.38 121.4-16.52 83.39-16.15 83.52-10.91 99.38-11.52 99.38-2.25 92.86-6.31 93.89-9.18 88.68-10.04 83.39 1.97 89.38 3.12 90.94-1.03 98.44 2.75 121.61 2.3 121.36-2.91 105.25-2.34ZM159.98-14.76L156.05-12.26 154.82-18.98 162.44-19.35 162.16-23.7 153.96-23.49 151.82-34.93 145.92-34.32 148.34-23.37 136.41-23.08 136.37-28.04 141.98-29.11 140.96-33.7 124.76-31.69 125.71-26.16 130.83-27.06 130.91-22.96 124.23-22.8 124.64-17.3 131.08-17.63 131.2-12.1 124.52-11.36 125.21-5.99 131.32-7.01 131.45-2.01 126.24-2.34 125.79 2.67 136.65 2.62 136.57-7.87 143.21-8.94 142.39-13.33 136.49-12.71 136.45-17.96 149.36-18.7 151.45-9.31 141.9-3.16 144.57 0.94 152.64-3.81 154.32 3.81 160.51 2.87 157.48-6.68 163.43-10.21ZM160.02-33.87L154.41-33.33 155.92-26.61 160.47-27.1Z" transform="translate(-2.299999952316284, 34.93000030517578)"></path></g> <!----> <!----> <!----> <!----> <!----> <!----> <!----></g></g> <g data-gra="path-slogan" fill-rule="" class="tp-slogan" fill="#567275" transform="translate(29.444995880126953,44.7400016784668)"><!----> <!----> <g transform="scale(1, 1)"><g transform="scale(1)"><path d="M0.89-8.58L2.06-8.58L2.06-1.03L6.42-1.03L6.42 0L0.89 0L0.89-8.58ZM14.34-4.27L14.34-4.27Q14.16-7.64 11.34-7.83L11.34-7.83Q8.48-7.69 8.34-4.27L8.34-4.27Q8.48-0.94 11.34-0.80L11.34-0.80Q14.16-0.98 14.34-4.27ZM15.52-4.27L15.52-4.27Q15.23 0 11.34 0.14L11.34 0.14Q7.41 0 7.13-4.27L7.13-4.27Q7.36-8.72 11.34-8.81L11.34-8.81Q15.23-8.67 15.52-4.27ZM18.28-8.58L22.59-1.64L22.59-8.58L23.72-8.58L23.72 0L22.41 0L18.05-6.94L18-6.94L18 0L16.88 0L16.88-8.58L18.28-8.58ZM31.92-3.61L29.30-3.61L29.30-4.59L33.05-4.59L33.05 0L32.30 0L32.02-1.08Q31.03 0.09 29.20 0.14L29.20 0.14Q27.47 0.14 26.53-0.75L26.53-0.75Q25.13-2.06 25.17-4.36L25.17-4.36Q25.50-8.63 29.25-8.81L29.25-8.81Q32.44-8.63 32.91-6L32.91-6L31.78-6Q31.31-7.78 29.20-7.83L29.20-7.83Q26.53-7.64 26.39-4.31L26.39-4.31Q26.39-0.75 29.25-0.75L29.25-0.75Q30.28-0.75 31.03-1.31L31.03-1.31Q31.97-2.06 31.92-3.61L31.92-3.61ZM34.83-8.58L36-8.58L36-1.03L40.36-1.03L40.36 0L34.83 0L34.83-8.58ZM48.28-4.27L48.28-4.27Q48.09-7.64 45.28-7.83L45.28-7.83Q42.42-7.69 42.28-4.27L42.28-4.27Q42.42-0.94 45.28-0.80L45.28-0.80Q48.09-0.98 48.28-4.27ZM49.45-4.27L49.45-4.27Q49.17 0 45.28 0.14L45.28 0.14Q41.34 0 41.06-4.27L41.06-4.27Q41.30-8.72 45.28-8.81L45.28-8.81Q49.17-8.67 49.45-4.27ZM52.22-8.58L56.53-1.64L56.53-8.58L57.66-8.58L57.66 0L56.34 0L51.98-6.94L51.94-6.94L51.94 0L50.81 0L50.81-8.58L52.22-8.58ZM65.86-3.61L63.23-3.61L63.23-4.59L66.98-4.59L66.98 0L66.23 0L65.95-1.08Q64.97 0.09 63.14 0.14L63.14 0.14Q61.41 0.14 60.47-0.75L60.47-0.75Q59.06-2.06 59.11-4.36L59.11-4.36Q59.44-8.63 63.19-8.81L63.19-8.81Q66.38-8.63 66.84-6L66.84-6L65.72-6Q65.25-7.78 63.14-7.83L63.14-7.83Q60.47-7.64 60.33-4.31L60.33-4.31Q60.33-0.75 63.19-0.75L63.19-0.75Q64.22-0.75 64.97-1.31L64.97-1.31Q65.91-2.06 65.86-3.61L65.86-3.61ZM72.28-8.58L73.45-8.58L73.45 0L72.28 0L72.28-8.58ZM81.70-6.09L81.70-6.09L80.63-6.09Q80.53-7.73 78.47-7.83L78.47-7.83Q76.55-7.78 76.55-6.33L76.55-6.33Q76.55-5.39 77.58-5.25L77.58-5.25L80.02-4.69Q81.94-4.22 81.94-2.34L81.94-2.34Q81.89 0.05 78.56 0.14L78.56 0.14Q76.73 0.14 75.98-0.61L75.98-0.61Q75.05-1.31 75.09-2.77L75.09-2.77L76.22-2.77Q76.27-0.80 78.56-0.75L78.56-0.75Q80.81-0.80 80.86-2.20L80.86-2.20Q81.05-3.38 78.98-3.75L78.98-3.75L77.20-4.13Q75.38-4.64 75.38-6.19L75.38-6.19Q75.52-8.72 78.38-8.81L78.38-8.81Q81.61-8.81 81.70-6.09ZM94.97-8.58L94.97 0L93.84 0L93.84-5.06Q93.84-5.77 93.84-7.22L93.84-7.22L91.41 0L90.23 0L87.84-7.22L87.80-7.22Q87.80-6.70 87.84-5.67L87.84-5.67Q87.84-5.16 87.84-5.06L87.84-5.06L87.84 0L86.67 0L86.67-8.58L88.36-8.58L90.84-1.31L93.28-8.58L94.97-8.58ZM97.97-1.03L103.13-1.03L103.13 0L96.80 0L96.80-8.58L103.03-8.58L103.03-7.59L97.97-7.59L97.97-4.92L102.66-4.92L102.66-3.89L97.97-3.89L97.97-1.03Z" transform="translate(-0.890625, 8.8125)"></path></g></g></g></g></g></g><mask id="7347a25a-3d02-4f31-ac35-ffb4aa599f2a"><g fill="white"><g><rect fill-opacity="1" stroke-width="2" x="0" y="0" width="90" height="90" class="image-rect"></rect> <svg x="0" y="0" width="90" height="90" filtersec="colorsb3798126789" class="image-svg-svg primary" style="overflow: visible;"><svg xmlns="http://www.w3.org/2000/svg" xmlns:xlink="http://www.w3.org/1999/xlink" xml:space="preserve" style="shape-rendering:geometricPrecision;text-rendering:geometricPrecision;image-rendering:optimizeQuality;" viewBox="2.8003997802734375 2.1744041442871094 94.01179504394531 94.01179504394531" x="0px" y="0px" fill-rule="evenodd" clip-rule="evenodd"><defs></defs><g><circle class="fil0" cx="49.8063" cy="49.1803" r="47.0059"></circle></g></svg></svg> </g></g> <g transform="translate(-118.56499481201172,48.15374946594238)" fill="black" stroke="black" stroke-width="6" stroke-linejoin="round"><g data-gra="path-name" fill-rule="" class="tp-name" transform="translate(0,0)"><g transform="scale(1)"><g><path d="M16.77-25.13L21.07-23.86 13.61-21.07 16.36-17.55 18.66-18.61 18.86-15.95 35.18-16.81 35.01-19.72 38.21-18.78 40.34-22.88 32.19-24.8 38.01-27.51 37.39-32.76 22.67-32.27 23.45-33.95 18.04-34.48 16.77-28.33 32.55-28.86 26.69-26.08 18.86-27.88ZM21.32-19.84L26.53-22.26 33.91-20.05ZM30.71-3.65L38.09-4.06 37.93-7.58 30.67-7.38 30.67-9.02 38.17-9.35 37.84-13.57 30.67-13.12 30.67-15.46 24.97-15.17 25.09-12.83 21.85-12.59 22.47-14.64 17.59-15.01 16.65-8.53 25.34-8.86 25.42-7.26 17.38-7.09 17.71-2.95 25.63-3.36 25.71-1.52 16.2-1.35 16.48 2.91 39.03 2.05 38.83-1.72 30.71-1.6ZM2.3-32.88L3.2 3.2 7.95 2.83 6.68-27.76 10.25-28 8.61-17.14 10.41-0.37 15.58-1.19 12.71-16.77 15.5-33.09ZM57.77-25.13L62.07-23.86 54.61-21.07 57.36-17.55 59.66-18.61 59.86-15.95 76.18-16.81 76.01-19.72 79.21-18.78 81.34-22.88 73.19-24.8 79.01-27.51 78.39-32.76 63.67-32.27 64.45-33.95 59.04-34.48 57.77-28.33 73.55-28.86 67.69-26.08 59.86-27.88ZM62.32-19.84L67.53-22.26 74.91-20.05ZM71.71-3.65L79.09-4.06 78.93-7.58 71.67-7.38 71.67-9.02 79.17-9.35 78.84-13.57 71.67-13.12 71.67-15.46 65.97-15.17 66.09-12.83 62.85-12.59 63.47-14.64 58.59-15.01 57.65-8.53 66.34-8.86 66.42-7.26 58.38-7.09 58.71-2.95 66.63-3.36 66.71-1.52 57.2-1.35 57.48 2.91 80.03 2.05 79.83-1.72 71.71-1.6ZM43.3-32.88L44.2 3.2 48.95 2.83 47.68-27.76 51.25-28 49.61-17.14 51.41-0.37 56.58-1.19 53.71-16.77 56.5-33.09ZM118-33.66L86.63-32.88 86.96-17.96 117.92-18.45ZM112.26-22.55L92.41-21.94 92.37-23.78 111.07-24.39 110.95-27.72 92.29-27.02 92.25-29.23 112.22-29.64ZM105.25-5.13L119.56-5.33 119.23-10.33 105.29-9.63 105.29-11.73 121.61-12.38 121.4-16.52 83.39-16.15 83.52-10.91 99.38-11.52 99.38-2.25 92.86-6.31 93.89-9.18 88.68-10.04 83.39 1.97 89.38 3.12 90.94-1.03 98.44 2.75 121.61 2.3 121.36-2.91 105.25-2.34ZM159.98-14.76L156.05-12.26 154.82-18.98 162.44-19.35 162.16-23.7 153.96-23.49 151.82-34.93 145.92-34.32 148.34-23.37 136.41-23.08 136.37-28.04 141.98-29.11 140.96-33.7 124.76-31.69 125.71-26.16 130.83-27.06 130.91-22.96 124.23-22.8 124.64-17.3 131.08-17.63 131.2-12.1 124.52-11.36 125.21-5.99 131.32-7.01 131.45-2.01 126.24-2.34 125.79 2.67 136.65 2.62 136.57-7.87 143.21-8.94 142.39-13.33 136.49-12.71 136.45-17.96 149.36-18.7 151.45-9.31 141.9-3.16 144.57 0.94 152.64-3.81 154.32 3.81 160.51 2.87 157.48-6.68 163.43-10.21ZM160.02-33.87L154.41-33.33 155.92-26.61 160.47-27.1Z" transform="translate(-2.299999952316284, 34.93000030517578)"></path></g>       </g></g> <g data-gra="path-slogan" fill-rule="" class="tp-slogan" transform="translate(29.444995880126953,44.7400016784668)" fill="white">  <g transform="scale(1, 1)"><g transform="scale(1)"><path d="M0.89-8.58L2.06-8.58L2.06-1.03L6.42-1.03L6.42 0L0.89 0L0.89-8.58ZM14.34-4.27L14.34-4.27Q14.16-7.64 11.34-7.83L11.34-7.83Q8.48-7.69 8.34-4.27L8.34-4.27Q8.48-0.94 11.34-0.80L11.34-0.80Q14.16-0.98 14.34-4.27ZM15.52-4.27L15.52-4.27Q15.23 0 11.34 0.14L11.34 0.14Q7.41 0 7.13-4.27L7.13-4.27Q7.36-8.72 11.34-8.81L11.34-8.81Q15.23-8.67 15.52-4.27ZM18.28-8.58L22.59-1.64L22.59-8.58L23.72-8.58L23.72 0L22.41 0L18.05-6.94L18-6.94L18 0L16.88 0L16.88-8.58L18.28-8.58ZM31.92-3.61L29.30-3.61L29.30-4.59L33.05-4.59L33.05 0L32.30 0L32.02-1.08Q31.03 0.09 29.20 0.14L29.20 0.14Q27.47 0.14 26.53-0.75L26.53-0.75Q25.13-2.06 25.17-4.36L25.17-4.36Q25.50-8.63 29.25-8.81L29.25-8.81Q32.44-8.63 32.91-6L32.91-6L31.78-6Q31.31-7.78 29.20-7.83L29.20-7.83Q26.53-7.64 26.39-4.31L26.39-4.31Q26.39-0.75 29.25-0.75L29.25-0.75Q30.28-0.75 31.03-1.31L31.03-1.31Q31.97-2.06 31.92-3.61L31.92-3.61ZM34.83-8.58L36-8.58L36-1.03L40.36-1.03L40.36 0L34.83 0L34.83-8.58ZM48.28-4.27L48.28-4.27Q48.09-7.64 45.28-7.83L45.28-7.83Q42.42-7.69 42.28-4.27L42.28-4.27Q42.42-0.94 45.28-0.80L45.28-0.80Q48.09-0.98 48.28-4.27ZM49.45-4.27L49.45-4.27Q49.17 0 45.28 0.14L45.28 0.14Q41.34 0 41.06-4.27L41.06-4.27Q41.30-8.72 45.28-8.81L45.28-8.81Q49.17-8.67 49.45-4.27ZM52.22-8.58L56.53-1.64L56.53-8.58L57.66-8.58L57.66 0L56.34 0L51.98-6.94L51.94-6.94L51.94 0L50.81 0L50.81-8.58L52.22-8.58ZM65.86-3.61L63.23-3.61L63.23-4.59L66.98-4.59L66.98 0L66.23 0L65.95-1.08Q64.97 0.09 63.14 0.14L63.14 0.14Q61.41 0.14 60.47-0.75L60.47-0.75Q59.06-2.06 59.11-4.36L59.11-4.36Q59.44-8.63 63.19-8.81L63.19-8.81Q66.38-8.63 66.84-6L66.84-6L65.72-6Q65.25-7.78 63.14-7.83L63.14-7.83Q60.47-7.64 60.33-4.31L60.33-4.31Q60.33-0.75 63.19-0.75L63.19-0.75Q64.22-0.75 64.97-1.31L64.97-1.31Q65.91-2.06 65.86-3.61L65.86-3.61ZM72.28-8.58L73.45-8.58L73.45 0L72.28 0L72.28-8.58ZM81.70-6.09L81.70-6.09L80.63-6.09Q80.53-7.73 78.47-7.83L78.47-7.83Q76.55-7.78 76.55-6.33L76.55-6.33Q76.55-5.39 77.58-5.25L77.58-5.25L80.02-4.69Q81.94-4.22 81.94-2.34L81.94-2.34Q81.89 0.05 78.56 0.14L78.56 0.14Q76.73 0.14 75.98-0.61L75.98-0.61Q75.05-1.31 75.09-2.77L75.09-2.77L76.22-2.77Q76.27-0.80 78.56-0.75L78.56-0.75Q80.81-0.80 80.86-2.20L80.86-2.20Q81.05-3.38 78.98-3.75L78.98-3.75L77.20-4.13Q75.38-4.64 75.38-6.19L75.38-6.19Q75.52-8.72 78.38-8.81L78.38-8.81Q81.61-8.81 81.70-6.09ZM94.97-8.58L94.97 0L93.84 0L93.84-5.06Q93.84-5.77 93.84-7.22L93.84-7.22L91.41 0L90.23 0L87.84-7.22L87.80-7.22Q87.80-6.70 87.84-5.67L87.84-5.67Q87.84-5.16 87.84-5.06L87.84-5.06L87.84 0L86.67 0L86.67-8.58L88.36-8.58L90.84-1.31L93.28-8.58L94.97-8.58ZM97.97-1.03L103.13-1.03L103.13 0L96.80 0L96.80-8.58L103.03-8.58L103.03-7.59L97.97-7.59L97.97-4.92L102.66-4.92L102.66-3.89L97.97-3.89L97.97-1.03Z" transform="translate(-0.890625, 8.8125)"></path></g></g></g></g></mask><defs v-gra="od"></defs></svg>