<svg t="1768834182731" class="icon" viewBox="0 0 1024 1024" version="1.1" xmlns="http://www.w3.org/2000/svg" p-id="8280" width="200" height="200"><path d="M463.234484 616.884737s6.623663 39.293998-1.439927 125.945585C451.715071 851.464789 503.16845 1024 503.16845 1024s70.172426-172.887194 57.949048-284.561505c-10.079487-91.803324 4.575767-123.897689 1.439927-119.577909-53.917254 74.492206-99.322941-2.94385-99.322941-2.94385z m131.481303 93.243251c8.799552 67.868543-0.991949 105.050649-13.663304 177.654951-6.399674 36.734129 130.905332-110.458374 183.54265-198.165906 8.799552-14.623255-50.333436 57.053094-108.826456 5.855701-40.573933-35.486192-47.51758-46.301642-79.067973-77.14807-10.623459-10.39947 11.807399 43.261796 18.015083 91.803324z m-149.816369-86.395599c-31.518395 30.846429-38.526038 41.629879-79.067973 77.14807-58.493021 51.197392-117.626008-20.478957-108.826456-5.855702 52.637319 87.771529 189.942325 234.900035 183.542651 198.165906-12.671355-72.668298-22.430857-109.818406-13.663304-177.654951 6.271681-48.509529 28.702538-102.170796 18.015082-91.803323z m135.06512-121.14583c64.156732 18.527056 89.083462 107.642517 153.848163 118.649957 13.407317 2.271884 28.446551 6.303679 46.045655 5.471721 32.862326-1.56792 74.39621-20.126975 129.913383-98.906962 16.415164-23.294813-40.733925 149.912364-184.022627 152.024256-104.954654 1.535922-117.21003-102.746766-187.158466-105.882606-25.246714-1.151941-26.846632-49.309488-26.846633-49.309489s30.110466-33.022318 68.220525-22.014878z m-135.929076-0.511973c-64.156732 18.527056-89.083462 107.642517-153.848163 118.649956-13.407317 2.271884-28.446551 6.303679-46.045655 5.471721-32.862326-1.56792-74.39621-20.126975-129.913383-98.906962-16.415164-23.294813 40.733925 149.912364 184.022627 152.024256 104.954654 1.535922 117.21003-102.746766 187.158466-105.882606 25.246714-1.151941 26.846632-49.309488 26.846633-49.309488s-30.110466-33.022318-68.220525-22.014879z m240.019774-0.831958c64.540712 48.893509 45.309692 102.746766 81.531847 87.387549 121.977787-51.709366 100.634874-317.167844 90.779376-285.073479-55.581169 180.982781-176.758996 191.126265-293.361057 107.866505-22.782839-16.255172 84.699686 62.23683 121.049834 89.851423z m-223.540613-89.851423c-116.602061 83.227761-237.779888 73.116276-293.361057-107.866506-9.855498-32.094365-31.198411 233.332115 90.779376 285.073479 36.222155 15.359218 16.991135-38.494039 81.531847-87.387548 36.350148-27.550597 143.832674-106.074597 121.049834-89.851424z m235.76399 24.894732c140.792828-5.791705 166.775505-236.56395 155.736068-208.405385-49.693469 126.42556-237.811886 78.843984-255.762973 158.615921-3.551819 15.647203 31.870377 52.60532 100.058904 49.789464z m-268.978299-49.789464C409.349229 306.724536 221.198813 354.274114 171.537342 227.880552c-11.039438-28.158566 14.943239 202.613679 155.736068 208.405385 68.220525 2.815857 103.578724-34.142261 100.058903-49.789464z m160.119844-35.134211s76.540101-41.117906 142.072763-59.036992c61.212882-16.767146 107.162541-57.981047 112.250283-101.530829 3.807806-32.414349-47.357588-93.723226-47.357588-93.723226S758.515443 196.650143 711.413842 246.439607c-51.229391 54.173241-31.774381 46.877612-123.993684 104.954654z m-275.313976-104.954653C265.004581 196.618145 229.134408 97.039217 229.134408 97.039217S177.969015 158.316096 181.776821 190.762443c5.119739 43.549782 51.0374 84.763682 112.250282 101.530828 65.532662 17.951086 142.072763 59.036993 142.072763 59.036993-92.251301-58.077042-72.732295-50.781413-123.993684-104.954654z m266.034449 98.618976c82.907777-67.996536 126.969532-156.696018 198.67788-253.811071 13.535311-18.303068-60.540916-62.492817-89.819425-65.404669S633.145829 130.477514 630.393969 193.738291c-2.527871 57.757058-63.388771 160.471826-52.253338 151.288294z m-185.014576-151.320292C390.342197 130.445515 365.767449 22.866995 336.520938 25.778847S233.198201 72.880448 246.701514 91.183515c71.708347 97.115053 115.738105 185.846533 198.677879 253.811072 11.135433 9.119535-49.693469-93.563234-52.253338-151.288294z m193.334152-68.348518c5.855702-46.845614 26.910629-81.051871 68.828494-109.818407-37.022114-12.383369-67.868543-22.430857-83.963723-9.247528s-59.86895 57.245084-54.013249 128.985429 0.287985 339.694697 13.023337 334.73495c6.815653-183.542651 64.924693-236.275965 56.15714-344.654444z m-93.275249 344.590447c12.671355 4.959747 7.135637-263.026602 13.023337-334.734949S468.322225 19.411171 452.195046 6.227843c-16.09518-13.183328-46.877612-3.103842-83.963723 9.247529 41.949863 28.766535 62.972792 62.972792 68.828494 109.818406-8.799552 108.314483 49.309488 161.047797 56.15714 344.654444z" fill="#00AF9C" p-id="8281"></path></svg>